<svg width="36" height="35" viewBox="0 0 36 35" fill="none" xmlns="http://www.w3.org/2000/svg">
<g clip-path="url(#clip0_2654_1236)">
<path d="M29.5408 0H6.35694C2.8461 0 0 2.8461 0 6.35694V28.6431C0 32.1539 2.8461 35 6.35694 35H29.5408C33.0516 35 35.8977 32.1539 35.8977 28.6431V6.35694C35.8977 2.8461 33.0516 0 29.5408 0Z" fill="#330000"/>
<path d="M17.3927 21.004H11.8296L10.6982 24.5197C10.6832 24.5841 10.646 24.6412 10.5931 24.6809C10.5402 24.7206 10.475 24.7403 10.409 24.7366H7.59165C7.43068 24.7366 7.37453 24.6482 7.4232 24.4713L12.2395 10.5979C12.2863 10.4533 12.3345 10.2895 12.3841 10.1066C12.4466 9.78512 12.4788 9.45848 12.4802 9.13098C12.4774 9.11161 12.4784 9.09186 12.4832 9.07288C12.488 9.05389 12.4965 9.03605 12.5083 9.02039C12.52 9.00472 12.5348 8.99154 12.5516 8.98161C12.5685 8.97168 12.5872 8.96519 12.6066 8.96253C12.6205 8.96041 12.6347 8.96041 12.6487 8.96253H16.4775C16.5898 8.96253 16.6536 9.00253 16.6705 9.08255L22.1367 24.4952C22.1852 24.6552 22.1367 24.7359 21.9921 24.7359H18.8617C18.808 24.7419 18.7539 24.7281 18.7096 24.6971C18.6653 24.6661 18.6338 24.62 18.621 24.5674L17.3927 21.004ZM12.6971 17.9677H16.5013C16.4054 17.6462 16.2931 17.285 16.1644 16.884C16.0357 16.4829 15.8993 16.0534 15.7552 15.5953L15.3215 14.2231C15.1769 13.7655 15.0445 13.3238 14.9242 12.898C14.8039 12.4722 14.6947 12.0838 14.5964 11.7329H14.5726C14.4369 12.3831 14.268 13.0259 14.0665 13.6588C13.8419 14.3817 13.6131 15.1204 13.3801 15.8747C13.147 16.6289 12.9194 17.3266 12.6971 17.9677Z" fill="#FF9A00"/>
<path d="M25.3901 11.5166C25.1444 11.5264 24.8995 11.4843 24.6713 11.3929C24.4431 11.3016 24.2367 11.1632 24.0656 10.9867C23.895 10.8025 23.7625 10.5864 23.6758 10.3507C23.589 10.1151 23.5498 9.86467 23.5602 9.61382C23.5519 9.36595 23.5958 9.1191 23.6892 8.88934C23.7825 8.65957 23.9232 8.45204 24.1021 8.28024C24.2792 8.11021 24.4883 7.97691 24.7171 7.88801C24.946 7.79911 25.1902 7.75637 25.4357 7.76225C26.0136 7.76225 26.467 7.93492 26.7959 8.28024C27.1296 8.64229 27.3063 9.1218 27.2872 9.61382C27.2974 9.86569 27.2567 10.117 27.1677 10.3529C27.0788 10.5887 26.9432 10.8043 26.7692 10.9867C26.5882 11.1652 26.3723 11.3044 26.1349 11.3955C25.8976 11.4867 25.644 11.5279 25.3901 11.5166ZM23.7287 24.4958V12.9849C23.7287 12.8404 23.7926 12.7681 23.921 12.7681H26.8823C27.01 12.7681 27.0746 12.8383 27.0746 12.9849V24.4958C27.0746 24.6558 27.0107 24.7365 26.8823 24.7365H23.9456C23.801 24.7372 23.7287 24.6565 23.7287 24.4958Z" fill="#FF9A00"/>
</g>
<defs>
<clipPath id="clip0_2654_1236">
<rect width="35.8977" height="35" fill="white"/>
</clipPath>
</defs>
</svg>
