<svg width="35" height="35" viewBox="0 0 35 35" fill="none" xmlns="http://www.w3.org/2000/svg">
<g clip-path="url(#clip0_2654_1282)">
<path d="M28.8024 0H6.19763C2.77477 0 0 2.77477 0 6.19763V27.9276C0 31.3505 2.77477 34.1253 6.19763 34.1253H28.8024C32.2252 34.1253 35 31.3505 35 27.9276V6.19763C35 2.77477 32.2252 0 28.8024 0Z" fill="#001E36"/>
<path d="M7.88281 23.9297V8.92599C7.88281 8.81725 7.92932 8.76185 8.0237 8.76185C8.27333 8.76185 8.50244 8.76185 8.8444 8.75022C9.18635 8.7386 9.56045 8.73449 9.95986 8.72697L11.2278 8.70303C11.6737 8.69528 12.1158 8.69141 12.5539 8.69141C13.7435 8.69141 14.7466 8.84004 15.5632 9.13732C16.2973 9.38617 16.9668 9.79523 17.5233 10.3349C17.9951 10.8029 18.3596 11.3678 18.5915 11.9906C18.811 12.5971 18.9218 13.2374 18.9191 13.8823C18.9191 15.1352 18.6296 16.1684 18.0506 16.9818C17.4674 17.7987 16.648 18.4174 15.7027 18.7545C14.7165 19.1225 13.6202 19.2469 12.4151 19.2469C12.0732 19.2469 11.8283 19.2435 11.6874 19.2353C11.5465 19.2271 11.3352 19.2237 11.0534 19.2237V23.9078C11.057 23.9321 11.0557 23.9569 11.0497 23.9807C11.0436 24.0045 11.0329 24.0269 11.0182 24.0466C11.0034 24.0662 10.9849 24.0827 10.9637 24.0952C10.9425 24.1077 10.9191 24.1158 10.8948 24.1191C10.8773 24.1219 10.8596 24.1219 10.8421 24.1191H8.04695C7.93479 24.1171 7.88281 24.0549 7.88281 23.9297ZM11.0534 11.5796V16.473C11.2568 16.4889 11.4446 16.4967 11.617 16.4962H12.3919C12.962 16.4943 13.5284 16.4038 14.0709 16.2281C14.5358 16.0906 14.9515 15.8223 15.2684 15.4553C15.5734 15.0956 15.7259 14.594 15.7259 13.9507C15.7378 13.4965 15.6191 13.0483 15.384 12.6595C15.1376 12.2834 14.7813 11.9923 14.3636 11.8258C13.8191 11.6143 13.2376 11.5145 12.6538 11.5324C12.2776 11.5324 11.945 11.5363 11.656 11.544C11.3669 11.5518 11.1672 11.5636 11.0569 11.5796H11.0534Z" fill="#31A8FF"/>
<path d="M27.9959 15.5842C27.5547 15.3572 27.0846 15.1913 26.5987 15.0911C26.0634 14.9681 25.5161 14.905 24.9669 14.903C24.6699 14.8951 24.3733 14.9308 24.0867 15.009C23.904 15.0494 23.7416 15.1534 23.6284 15.3024C23.5519 15.4216 23.5113 15.5602 23.5115 15.7018C23.5156 15.8391 23.5652 15.9711 23.6524 16.0773C23.7894 16.2377 23.957 16.3693 24.1455 16.4644C24.48 16.644 24.8249 16.8039 25.1782 16.9431C25.9662 17.2071 26.7193 17.5658 27.4207 18.0114C27.8982 18.3132 28.2934 18.7287 28.5711 19.2205C28.8051 19.687 28.9224 20.2033 28.913 20.7252C28.9269 21.4133 28.7303 22.0893 28.3495 22.6627C27.9416 23.2443 27.3752 23.6965 26.7177 23.9655C26.0037 24.2792 25.1223 24.4361 24.0737 24.4361C23.4078 24.4423 22.7431 24.3792 22.0903 24.248C21.5758 24.1537 21.075 23.9958 20.5994 23.7781C20.5479 23.7517 20.5051 23.7112 20.4759 23.6613C20.4467 23.6114 20.4323 23.5542 20.4346 23.4964V20.9611C20.4316 20.9362 20.4355 20.911 20.4459 20.8882C20.4562 20.8655 20.4727 20.8459 20.4934 20.8318C20.5135 20.8203 20.5367 20.8153 20.5598 20.8174C20.5829 20.8194 20.6049 20.8286 20.6226 20.8435C21.1849 21.1749 21.7954 21.4165 22.4323 21.5595C22.9932 21.7003 23.5686 21.7751 24.1468 21.7825C24.694 21.7825 25.097 21.712 25.356 21.5712C25.4726 21.5178 25.5712 21.4317 25.6399 21.3235C25.7086 21.2152 25.7444 21.0893 25.7431 20.9611C25.7431 20.7573 25.6257 20.5615 25.3909 20.3736C25.1561 20.1858 24.6782 19.9601 23.9574 19.6965C23.2202 19.44 22.5212 19.0845 21.8797 18.6399C21.4208 18.3212 21.0428 17.8996 20.7758 17.4089C20.5444 16.9463 20.4272 16.4351 20.4339 15.9179C20.4319 15.2949 20.6028 14.6836 20.9277 14.1521C21.2968 13.568 21.8269 13.1032 22.4542 12.8136C23.1426 12.4694 24.0034 12.2973 25.0366 12.2973C25.6418 12.2922 26.2465 12.3352 26.8449 12.4259C27.2781 12.4816 27.7015 12.5966 28.1033 12.7678C28.1352 12.777 28.1645 12.7934 28.189 12.8158C28.2134 12.8383 28.2323 12.8661 28.2442 12.8971C28.2601 12.9543 28.2679 13.0135 28.2674 13.0728V15.4447C28.2693 15.4721 28.264 15.4995 28.252 15.5242C28.24 15.5489 28.2217 15.5701 28.199 15.5855C28.1674 15.601 28.1326 15.609 28.0973 15.6088C28.0621 15.6085 28.0274 15.6001 27.9959 15.5842Z" fill="#31A8FF"/>
</g>
<defs>
<clipPath id="clip0_2654_1282">
<rect width="35" height="34.1253" fill="white"/>
</clipPath>
</defs>
</svg>
