<svg width="31" height="35" viewBox="0 0 31 35" fill="none" xmlns="http://www.w3.org/2000/svg">
<g clip-path="url(#clip0_2654_1290)">
<path d="M26.1362 0.285412C25.1108 -0.284249 22.1685 0.0518512 18.6395 1.1399C12.4587 5.36394 7.24625 11.5903 6.87882 21.5851C6.81046 21.8215 6.20092 21.5509 6.0813 21.4768C4.41219 18.2782 3.75138 14.9086 5.1442 10.0494C5.4034 9.61932 4.5546 9.08668 4.40079 9.23764C3.47642 10.1873 2.66234 11.2383 1.97404 12.3708C-2.22437 19.6539 0.521399 28.9907 7.86718 33.0751C9.61359 34.0477 11.5345 34.6667 13.5201 34.8969C15.5058 35.1271 17.5173 34.9639 19.4399 34.4167C21.3625 33.8695 23.1585 32.9489 24.7253 31.7076C26.2921 30.4662 27.599 28.9284 28.5715 27.182C33.3026 18.7026 28.9105 1.8178 26.1362 0.285412Z" fill="#82B541"/>
</g>
<defs>
<clipPath id="clip0_2654_1290">
<rect width="30.662" height="35" fill="white"/>
</clipPath>
</defs>
</svg>
