<svg width="25" height="37" viewBox="0 0 25 37" fill="none" xmlns="http://www.w3.org/2000/svg">
<g clip-path="url(#clip0_2654_1252)">
<path d="M12.3906 17.7353C12.3906 14.7155 14.8393 12.2683 17.8583 12.2683H18.6492C18.6707 12.269 18.6944 12.2676 18.7167 12.2676C22.1042 12.2676 24.8509 15.0151 24.8509 18.4018C24.8509 21.7886 22.1042 24.5354 18.7167 24.5354C18.6944 24.5354 18.6707 24.5347 18.6484 24.5347L17.8583 24.5354C14.8393 24.5354 12.3906 22.0867 12.3906 19.0677V17.7353Z" fill="#00B6FF"/>
<path d="M0 30.6701C0 27.2826 2.74677 24.5352 6.13427 24.5352L12.3928 24.5359V30.6069C12.3928 34.0296 9.58713 36.803 6.16444 36.803C2.77766 36.803 0 34.0569 0 30.6701Z" fill="#24CB71"/>
<path d="M12.3906 0.000718298V12.2678H18.6492C18.6707 12.2671 18.6944 12.2685 18.7167 12.2685C22.1042 12.2685 24.8509 9.52104 24.8509 6.13427C24.8509 2.74677 22.1042 0 18.7167 0C18.6944 0 18.6707 0.000718298 18.6484 0.000718298H12.3906Z" fill="#FF7237"/>
<path d="M0 6.13478C0 9.52228 2.74677 12.2691 6.13427 12.2691H12.3928V0.00195312H6.13355C2.74677 0.00195312 0 2.74801 0 6.13478Z" fill="#FF3737"/>
<path d="M0 18.4004C0 21.7879 2.74677 24.5347 6.13427 24.5347H12.3928V12.2676H6.13355C2.74677 12.2676 0 15.0136 0 18.4004Z" fill="#874FFF"/>
</g>
<defs>
<clipPath id="clip0_2654_1252">
<rect width="24.8531" height="36.8027" fill="white"/>
</clipPath>
</defs>
</svg>
