<svg width="39" height="39" viewBox="0 0 39 39" fill="none" xmlns="http://www.w3.org/2000/svg">
<g clip-path="url(#clip0_2654_1244)">
<path d="M19.4206 0.00195312C8.69845 0.00195312 0.00390625 8.76943 0.00390625 19.585C0.00390625 28.2374 5.56738 35.5779 13.2823 38.1674C14.2526 38.3486 14.609 37.7426 14.609 37.2253C14.609 36.7584 14.5909 35.2156 14.5826 33.5793C9.18073 34.7639 8.0409 31.2688 8.0409 31.2688C7.15766 29.0052 5.88504 28.4035 5.88504 28.4035C4.12344 27.188 6.01783 27.2129 6.01783 27.2129C7.96765 27.3511 8.99433 29.231 8.99433 29.231C10.7261 32.2248 13.5366 31.3592 14.6446 30.859C14.8188 29.5931 15.3221 28.7294 15.8773 28.2403C11.5647 27.745 7.03096 26.0659 7.03096 18.5623C7.03096 16.4243 7.78948 14.6773 9.03164 13.3059C8.83002 12.8126 8.16546 10.8209 9.21971 8.12345C9.21971 8.12345 10.8502 7.59711 14.5607 10.1308C16.1094 9.69678 17.7705 9.47931 19.4206 9.47194C21.0708 9.47931 22.7331 9.69678 24.2848 10.1308C27.9909 7.59711 29.6191 8.12345 29.6191 8.12345C30.6759 10.8209 30.0111 12.8126 29.8095 13.3059C31.0544 14.6773 31.8077 16.4242 31.8077 18.5623C31.8077 26.0837 27.2654 27.74 22.9418 28.2247C23.6382 28.8324 24.2588 30.0242 24.2588 31.8512C24.2588 34.4713 24.2362 36.5802 24.2362 37.2253C24.2362 37.7464 24.5857 38.3571 25.5701 38.1648C33.2807 35.5724 38.8372 28.2345 38.8372 19.585C38.8372 8.76943 30.1439 0.00195312 19.4206 0.00195312Z" fill="white"/>
<path d="M7.27786 27.8965C7.23522 27.9937 7.08325 28.0229 6.94513 27.9563C6.80427 27.8924 6.72508 27.7597 6.77076 27.662C6.81264 27.5619 6.96462 27.5339 7.10518 27.6012C7.24634 27.6649 7.32675 27.7988 7.27786 27.8965ZM8.23298 28.756C8.14039 28.8426 7.95933 28.8024 7.83643 28.6655C7.70943 28.529 7.68568 28.3465 7.77963 28.2585C7.87511 28.1721 8.0507 28.2125 8.178 28.3491C8.30501 28.4872 8.32968 28.6686 8.23282 28.7562M8.88825 29.8557C8.76916 29.9391 8.57455 29.8609 8.4544 29.6867C8.33546 29.5127 8.33546 29.3038 8.45698 29.2201C8.57759 29.1364 8.76916 29.2117 8.89099 29.3845C9.00977 29.5616 9.00977 29.7704 8.88809 29.8558M9.99625 31.1294C9.88981 31.2476 9.66321 31.216 9.49722 31.0544C9.32758 30.8965 9.28022 30.6724 9.38697 30.554C9.49463 30.4355 9.7226 30.4688 9.88981 30.629C10.0584 30.7866 10.1099 31.0123 9.9964 31.1294M11.4283 31.5594C11.3816 31.7127 11.1632 31.7824 10.9433 31.7173C10.7237 31.6502 10.5799 31.4705 10.6243 31.3155C10.6699 31.1612 10.8892 31.0885 11.1108 31.1582C11.3301 31.2251 11.4741 31.4034 11.4285 31.5594M13.0583 31.7417C13.0638 31.9033 12.8773 32.0372 12.6464 32.0401C12.4142 32.0452 12.2264 31.9145 12.224 31.7557C12.224 31.5926 12.4063 31.4599 12.6383 31.456C12.8692 31.4514 13.0583 31.5812 13.0583 31.7417ZM14.6594 31.6798C14.6871 31.8374 14.5266 31.9993 14.2975 32.0423C14.0721 32.0838 13.8635 31.9865 13.8347 31.8303C13.8067 31.6688 13.9702 31.507 14.1951 31.4651C14.4248 31.4249 14.6302 31.5196 14.6594 31.6798Z" fill="white"/>
</g>
<defs>
<clipPath id="clip0_2654_1244">
<rect width="38.9842" height="38.2487" fill="white"/>
</clipPath>
</defs>
</svg>
