<svg width="36" height="36" viewBox="0 0 36 36" fill="none" xmlns="http://www.w3.org/2000/svg">
<g clip-path="url(#clip0_2654_1263)">
<path d="M32.4506 0H26.0216C24.4666 0 23.19 1.27651 23.19 2.83154V11.1405H13.8831C12.3745 11.1405 11.1444 12.3706 11.1444 13.9024V23.2093H2.76582C1.234 23.2093 0.00390625 24.4394 0.00390625 25.9713V32.4699C0.00390625 34.0017 1.234 35.2318 2.76582 35.2782H32.4738C34.0288 35.2782 35.3053 34.0017 35.3053 32.4467V2.83154C35.2821 1.27651 34.0056 0 32.4506 0Z" fill="url(#paint0_linear_2654_1263)"/>
<path d="M32.4506 0H26.0216C24.4666 0 23.19 1.27651 23.19 2.83154V11.1405H13.8831C12.3745 11.1405 11.1444 12.3706 11.1444 13.9024V23.2093H2.76582C1.234 23.2093 0.00390625 24.4394 0.00390625 25.9713V32.4699C0.00390625 34.0017 1.234 35.2318 2.76582 35.2782H32.4738C34.0288 35.2782 35.3053 34.0017 35.3053 32.4467V2.83154C35.2821 1.27651 34.0056 0 32.4506 0Z" fill="url(#paint1_linear_2654_1263)"/>
<path d="M32.4524 0.00195312H26.0698C24.5148 0.00195312 23.2383 1.27847 23.2383 2.83349V35.2802H32.4524C34.0074 35.2802 35.2839 34.0037 35.2839 32.4486V2.83349C35.2839 1.27847 34.0074 0.00195312 32.4524 0.00195312Z" fill="#F57C00"/>
<path d="M11.1444 13.9277V23.2114H2.78903C1.25721 23.2114 0.00390625 24.4647 0.00390625 25.9966V32.4952C0.00390625 34.027 1.25721 35.2803 2.78903 35.2803H23.2133V11.1426H13.9295C12.3977 11.1426 11.1444 12.3959 11.1444 13.9277Z" fill="#FFC107"/>
<path d="M23.2109 11.1406V35.2783H32.425C33.9801 35.2783 35.2566 34.0018 35.2566 32.4468V23.2095L23.2109 11.1406Z" fill="url(#paint2_linear_2654_1263)"/>
<path opacity="0.2" d="M13.9297 11.3727H23.2134V11.1406H13.9297C12.3978 11.1406 11.1445 12.3939 11.1445 13.9257V14.1578C11.1445 12.626 12.3978 11.3727 13.9297 11.3727Z" fill="white"/>
<path opacity="0.2" d="M2.78903 23.4411H11.1444V23.209H2.78903C1.25721 23.209 0.00390625 24.4623 0.00390625 25.9941V26.2262C0.00390625 24.6944 1.25721 23.4411 2.78903 23.4411Z" fill="white"/>
<path opacity="0.2" d="M32.4524 0.00195312H26.0698C24.5148 0.00195312 23.2383 1.27847 23.2383 2.83349V3.06559C23.2383 1.51056 24.5148 0.234047 26.0698 0.234047H32.4524C34.0074 0.234047 35.2839 1.51056 35.2839 3.06559V2.83349C35.2839 1.27847 34.0074 0.00195312 32.4524 0.00195312Z" fill="white"/>
<path opacity="0.2" d="M32.4506 35.0444H2.78903C1.25721 35.0444 0.00390625 33.7911 0.00390625 32.2593V32.4914C0.00390625 34.0232 1.25721 35.2765 2.78903 35.2765H32.4274C33.9824 35.2765 35.2589 34 35.2589 32.445V32.2129C35.2821 33.7679 34.0056 35.0444 32.4506 35.0444Z" fill="#BF360C"/>
</g>
<defs>
<linearGradient id="paint0_linear_2654_1263" x1="0.00390625" y1="17.6391" x2="35.3053" y2="17.6391" gradientUnits="userSpaceOnUse">
<stop stop-color="white" stop-opacity="0.1"/>
<stop offset="1" stop-color="white" stop-opacity="0"/>
</linearGradient>
<linearGradient id="paint1_linear_2654_1263" x1="0.00390625" y1="17.6391" x2="35.3053" y2="17.6391" gradientUnits="userSpaceOnUse">
<stop stop-color="white" stop-opacity="0.1"/>
<stop offset="1" stop-color="white" stop-opacity="0"/>
</linearGradient>
<linearGradient id="paint2_linear_2654_1263" x1="17.2345" y1="17.2331" x2="34.435" y2="34.4335" gradientUnits="userSpaceOnUse">
<stop stop-color="#BF360C" stop-opacity="0.2"/>
<stop offset="1" stop-color="#BF360C" stop-opacity="0.02"/>
</linearGradient>
<clipPath id="clip0_2654_1263">
<rect width="35.3065" height="35.2782" fill="white"/>
</clipPath>
</defs>
</svg>
