<svg width="58" height="58" viewBox="0 0 58 58" fill="none" xmlns="http://www.w3.org/2000/svg">
<rect width="58.0062" height="58.0062" rx="29.0031" fill="#EEB51F"/>
<g clip-path="url(#clip0_3163_131)">
<path d="M44.9855 24.0832C44.9873 25.9239 44.53 27.736 43.6551 29.3554C42.7801 30.9749 41.5151 32.3505 39.9745 33.3578C38.4339 34.3651 36.6664 34.9723 34.832 35.1244C32.9976 35.2765 31.1543 34.9687 29.4688 34.2288L21.4661 43.4859C21.4477 43.5075 21.4261 43.5305 21.4062 43.5505C20.4836 44.4731 19.2322 44.9914 17.9275 44.9914C16.6227 44.9914 15.3714 44.4731 14.4487 43.5505C13.5261 42.6279 13.0078 41.3766 13.0078 40.0718C13.0078 38.767 13.5261 37.5157 14.4487 36.5931C14.4703 36.5731 14.4918 36.5516 14.5148 36.5331L23.7719 28.5319C22.9426 26.6347 22.6614 24.543 22.9605 22.4942C23.2596 20.4453 24.1268 18.5213 25.4639 16.9403C26.801 15.3593 28.5543 14.1846 30.5251 13.5496C32.4959 12.9145 34.6052 12.8445 36.6138 13.3474C36.8209 13.3993 37.0108 13.5042 37.1651 13.6517C37.3193 13.7993 37.4324 13.9845 37.4934 14.1891C37.5543 14.3936 37.561 14.6106 37.5127 14.8185C37.4644 15.0264 37.3628 15.2182 37.2179 15.3749L31.458 21.6237L32.3281 25.6743L36.3771 26.5428L42.6258 20.7752C42.7826 20.6303 42.9744 20.5287 43.1823 20.4804C43.3902 20.4321 43.6071 20.4387 43.8117 20.4997C44.0163 20.5607 44.2015 20.6738 44.349 20.828C44.4966 20.9823 44.6015 21.1722 44.6534 21.3793C44.8741 22.2637 44.9856 23.1717 44.9855 24.0832Z" fill="#302C18"/>
</g>
<defs>
<clipPath id="clip0_3163_131">
<rect width="31.9728" height="31.9728" fill="white" transform="translate(13.0117 13.0156)"/>
</clipPath>
</defs>
</svg>
