<svg width="156" height="156" viewBox="0 0 156 156" fill="none" xmlns="http://www.w3.org/2000/svg">
<g filter="url(#filter0_d_2654_1231)">
<rect x="48.8477" y="48.8477" width="58.0062" height="58.0062" rx="29.0031" fill="#EEB51F"/>
<g clip-path="url(#clip0_2654_1231)">
<path d="M93.8331 72.9309C93.835 74.7716 93.3777 76.5837 92.5027 78.2031C91.6278 79.8225 90.3627 81.1982 88.8222 82.2055C87.2816 83.2128 85.5141 83.82 83.6797 83.9721C81.8453 84.1242 80.0019 83.8164 78.3165 83.0765L70.3138 92.3336C70.2953 92.3551 70.2738 92.3782 70.2538 92.3982C69.3312 93.3208 68.0799 93.8391 66.7751 93.8391C65.4703 93.8391 64.219 93.3208 63.2964 92.3982C62.3738 91.4755 61.8555 90.2242 61.8555 88.9194C61.8555 87.6147 62.3738 86.3633 63.2964 85.4407C63.3179 85.4207 63.3394 85.3992 63.3625 85.3808L72.6196 77.3796C71.7902 75.4824 71.5091 73.3907 71.8082 71.3418C72.1072 69.293 72.9745 67.3689 74.3115 65.7879C75.6486 64.2069 77.402 63.0323 79.3728 62.3972C81.3436 61.7622 83.4529 61.6921 85.4615 62.195C85.6685 62.2469 85.8585 62.3518 86.0127 62.4994C86.1669 62.647 86.2801 62.8322 86.341 63.0367C86.402 63.2413 86.4087 63.4582 86.3604 63.6661C86.3121 63.8741 86.2105 64.0658 86.0656 64.2226L80.3056 70.4714L81.1757 74.5219L85.2247 75.3904L91.4735 69.6228C91.6302 69.4779 91.822 69.3763 92.0299 69.328C92.2379 69.2797 92.4548 69.2864 92.6594 69.3474C92.8639 69.4083 93.0491 69.5215 93.1967 69.6757C93.3443 69.8299 93.4492 70.0199 93.5011 70.2269C93.7218 71.1113 93.8333 72.0194 93.8331 72.9309Z" fill="#302C18"/>
</g>
</g>
<defs>
<filter id="filter0_d_2654_1231" x="0.000328064" y="0.000328064" width="155.701" height="155.701" filterUnits="userSpaceOnUse" color-interpolation-filters="sRGB">
<feFlood flood-opacity="0" result="BackgroundImageFix"/>
<feColorMatrix in="SourceAlpha" type="matrix" values="0 0 0 0 0 0 0 0 0 0 0 0 0 0 0 0 0 0 127 0" result="hardAlpha"/>
<feOffset/>
<feGaussianBlur stdDeviation="24.4237"/>
<feComposite in2="hardAlpha" operator="out"/>
<feColorMatrix type="matrix" values="0 0 0 0 0.0588235 0 0 0 0 0.466667 0 0 0 0 1 0 0 0 0.04 0"/>
<feBlend mode="normal" in2="BackgroundImageFix" result="effect1_dropShadow_2654_1231"/>
<feBlend mode="normal" in="SourceGraphic" in2="effect1_dropShadow_2654_1231" result="shape"/>
</filter>
<clipPath id="clip0_2654_1231">
<rect width="31.9728" height="31.9728" fill="white" transform="translate(61.8594 61.8633)"/>
</clipPath>
</defs>
</svg>
