<svg width="12" height="13" viewBox="0 0 12 13" fill="none" xmlns="http://www.w3.org/2000/svg">
<path d="M0.400151 0.165702C0.536083 0.0712203 0.69479 0.014772 0.859855 0.00219603C1.02492 -0.0103807 1.19034 0.0213722 1.33902 0.0941686L11.4701 4.94526C11.6149 5.01527 11.7393 5.12134 11.8313 5.25329C11.9149 5.37566 11.968 5.51625 11.9862 5.66333C12.0044 5.81041 11.9872 5.95972 11.9359 6.09878C11.8847 6.23784 11.8009 6.36263 11.6916 6.46272C11.5823 6.56281 11.4507 6.63531 11.3077 6.67415L6.59698 8.02436C6.55093 8.03756 6.50192 8.03621 6.45667 8.02047C6.41142 8.00474 6.37214 7.9754 6.34421 7.93647L6.33497 7.9231C6.29887 7.87063 6.25237 7.82615 6.19835 7.79241C6.14434 7.75867 6.08396 7.73639 6.02098 7.72697C5.95799 7.71754 5.89374 7.72117 5.83222 7.73762C5.77069 7.75408 5.71321 7.783 5.66333 7.82261C5.57106 7.8992 5.51112 8.00783 5.49553 8.12673C5.47993 8.24564 5.50984 8.36605 5.57925 8.46384C5.60688 8.50382 5.62129 8.55145 5.62043 8.60004C5.61873 8.6963 5.55168 8.77733 5.5063 8.86224L3.62811 12.3768C3.51723 12.5293 3.36257 12.6445 3.18468 12.707C3.00678 12.7695 2.81408 12.7764 2.63216 12.7268C2.45024 12.6772 2.28773 12.5734 2.1662 12.4293C2.04467 12.2851 1.96988 12.1073 1.95177 11.9197L0.00417449 1.01547C-0.011081 0.851441 0.0175483 0.686304 0.0871295 0.536983C0.156711 0.387662 0.26474 0.259523 0.400151 0.165702Z" fill="white"/>
</svg>
