<svg width="58" height="58" viewBox="0 0 58 58" fill="none" xmlns="http://www.w3.org/2000/svg">
<path d="M50.8208 25.8821C51.6678 23.8087 51.9509 21.5481 51.6412 19.3298C51.3316 17.1116 50.4403 15.0149 49.0578 13.2528C47.6754 11.4906 45.8511 10.1258 43.7704 9.29704C41.6897 8.46827 39.4266 8.20507 37.2112 8.53419C35.8383 6.76568 34.0218 5.39196 31.9463 4.55252C29.8707 3.71308 27.61 3.43781 25.3937 3.75466C23.1773 4.07151 21.0843 4.96919 19.3271 6.35657C17.5699 7.74394 16.2111 9.5716 15.3887 11.654C13.1696 11.9577 11.0705 12.8435 9.3046 14.2213C7.53873 15.5991 6.16908 17.4199 5.33482 19.4985C4.50057 21.5771 4.23144 23.8396 4.55479 26.0559C4.87814 28.2722 5.78245 30.3634 7.17582 32.1171C6.49587 33.7834 6.1782 35.5752 6.24389 37.3737C6.30957 39.1722 6.75712 40.9361 7.55682 42.5483C8.35651 44.1606 9.49004 45.5843 10.8822 46.7248C12.2743 47.8654 13.8931 48.6967 15.6311 49.1636C16.7084 49.4585 17.8198 49.6109 18.9367 49.6168C19.5562 49.6162 20.1749 49.57 20.7877 49.4786C22.1609 51.2464 23.9774 52.6195 26.0528 53.4584C28.1282 54.2974 30.3886 54.5722 32.6046 54.2552C34.8206 53.9381 36.9132 53.0404 38.6701 51.6532C40.427 50.2659 41.7856 48.4385 42.6079 46.3565C44.827 46.0528 46.9262 45.167 48.692 43.7892C50.4579 42.4113 51.8276 40.5906 52.6618 38.512C53.4961 36.4333 53.7652 34.1709 53.4418 31.9546C53.1185 29.7383 52.2142 27.647 50.8208 25.8934V25.8821ZM32.6233 31.093L28.9983 33.1864L25.3733 31.093V26.9061L28.9983 24.8127L32.6233 26.9061V31.093ZM41.4253 12.3314C43.7092 12.9419 45.6641 14.4208 46.873 16.4525C48.0818 18.4842 48.4489 20.9078 47.8959 23.2064C47.6807 23.0636 47.4632 22.9254 47.2366 22.7963L37.1546 16.9646C36.879 16.8055 36.5665 16.7217 36.2483 16.7217C35.9302 16.7217 35.6176 16.8055 35.3421 16.9646L25.3733 22.7215V18.5347L34.5491 13.2376C35.5785 12.6397 36.7162 12.2518 37.8965 12.0962C39.0767 11.9407 40.2761 12.0206 41.4253 12.3314ZM9.25339 19.6947C10.4087 17.6802 12.2976 16.1899 14.5255 15.535C14.5096 15.7932 14.4983 16.0515 14.4983 16.3121V27.9529C14.4982 28.2711 14.582 28.5837 14.741 28.8593C14.9001 29.135 15.129 29.3638 15.4046 29.5229L25.3733 35.2776L21.7483 37.3824L12.5725 32.074C10.4911 30.8722 8.97236 28.8928 8.35033 26.5713C7.72829 24.2497 8.05395 21.7761 9.25566 19.6947H9.25339ZM30.8108 50.7496C28.4907 50.7558 26.2575 49.8672 24.5758 48.2687C24.8024 48.1532 25.0289 48.0308 25.2555 47.8994L35.3421 42.079C35.6173 41.9201 35.846 41.6916 36.005 41.4164C36.1641 41.1412 36.248 40.8291 36.2483 40.5112V28.9996L39.8733 31.093V41.6871C39.8733 44.0906 38.9185 46.3957 37.219 48.0952C35.5194 49.7948 33.2143 50.7496 30.8108 50.7496Z" fill="black"/>
</svg>
