<svg width="58" height="58" viewBox="0 0 58 58" fill="none" xmlns="http://www.w3.org/2000/svg">
<g clip-path="url(#clip0_3142_153)">
<path d="M45.3125 5.44238H12.6875C11.7261 5.44238 10.8041 5.8243 10.1242 6.50412C9.44442 7.18394 9.0625 8.10597 9.0625 9.06738V48.9424C9.0625 49.9038 9.44442 50.8258 10.1242 51.5056C10.8041 52.1855 11.7261 52.5674 12.6875 52.5674H45.3125C46.2739 52.5674 47.1959 52.1855 47.8758 51.5056C48.5556 50.8258 48.9375 49.9038 48.9375 48.9424V9.06738C48.9375 8.10597 48.5556 7.18394 47.8758 6.50412C47.1959 5.8243 46.2739 5.44238 45.3125 5.44238ZM36.25 23.5674H45.3125V29.0049H36.25V23.5674ZM25.375 32.6299H45.3125V38.0674H25.375V32.6299ZM45.3125 48.9424H12.6875V41.6924H45.3125V48.9424Z" fill="black"/>
</g>
<defs>
<clipPath id="clip0_3142_153">
<rect width="58" height="58" fill="white"/>
</clipPath>
</defs>
</svg>
