<svg width="59" height="59" viewBox="0 0 59 59" fill="none" xmlns="http://www.w3.org/2000/svg">
<path d="M27.4803 37.0922V52.0583C27.4812 52.1881 27.4545 52.3165 27.402 52.4351C27.3495 52.5537 27.2724 52.6599 27.1759 52.7465C27.0793 52.8331 26.9654 52.8982 26.8418 52.9375C26.7182 52.9768 26.5876 52.9895 26.4587 52.9745C22.2246 52.4545 18.2071 50.81 14.8236 48.212C11.4401 45.6139 8.81409 42.1571 7.21858 38.2008C7.17088 38.0806 7.14921 37.9516 7.15497 37.8223C7.16073 37.693 7.19381 37.5665 7.25202 37.4509C7.31022 37.3354 7.39224 37.2335 7.49268 37.1519C7.59311 37.0703 7.70969 37.011 7.83472 36.9777L22.2855 33.0976C22.4704 33.0491 22.666 33.0596 22.8447 33.1278C23.0233 33.196 23.1762 33.3184 23.2818 33.4778C24.1568 34.7436 25.4052 35.7045 26.8527 36.2264C27.0348 36.2869 27.1933 36.4029 27.3059 36.5583C27.4185 36.7136 27.4795 36.9004 27.4803 37.0922ZM29.3265 5.49712C29.0847 5.49531 28.8449 5.54137 28.621 5.63264C28.3971 5.72391 28.1935 5.8586 28.0219 6.02894C27.8502 6.19927 27.714 6.40189 27.6211 6.6251C27.5282 6.84832 27.4803 7.08772 27.4803 7.32952V20.1563C27.4767 20.6382 27.6644 21.1019 28.0024 21.4455C28.3404 21.7891 28.801 21.9845 29.2829 21.9887C31.0135 21.9812 32.6909 22.5863 34.0181 23.6969C35.3454 24.8075 36.2369 26.3518 36.5348 28.0566C36.8326 29.7613 36.5177 31.5165 35.6457 33.0113C34.7737 34.5062 33.401 35.6443 31.7704 36.2241C31.5884 36.2851 31.4301 36.4017 31.3179 36.5574C31.2057 36.7132 31.1453 36.9003 31.1451 37.0922V52.0583C31.1443 52.1878 31.1709 52.3161 31.2233 52.4345C31.2756 52.553 31.3525 52.659 31.4488 52.7455C31.5451 52.8321 31.6587 52.8973 31.782 52.9368C31.9054 52.9762 32.0357 52.9891 32.1644 52.9745C38.2009 52.2606 43.7362 49.2659 47.6367 44.6038C51.5372 39.9416 53.5079 33.9647 53.1452 27.8969C52.7825 21.8291 50.1139 16.1295 45.6858 11.9652C41.2576 7.80087 35.4051 5.48691 29.3265 5.49712ZM21.9969 28.7434C22.0821 27.661 22.4068 26.6111 22.9474 25.6695V25.6535C23.129 25.3399 23.2135 24.9795 23.1903 24.6179C23.167 24.2562 23.0371 23.9096 22.8169 23.6218C22.6628 23.4239 22.4714 23.2581 22.2534 23.1339L11.1834 16.7343C10.9749 16.614 10.7446 16.536 10.5059 16.5048C10.2672 16.4736 10.0246 16.4897 9.79212 16.5522C9.55962 16.6147 9.34172 16.7225 9.15088 16.8693C8.96005 17.0161 8.80001 17.199 8.67991 17.4077C6.01402 22.0248 4.97212 27.4021 5.72059 32.6807C5.73825 32.8096 5.78314 32.9332 5.85226 33.0433C5.92138 33.1535 6.01316 33.2476 6.1215 33.3196C6.22983 33.3915 6.35224 33.4396 6.48057 33.4605C6.60891 33.4815 6.74025 33.4749 6.86584 33.4412L21.3464 29.5473C21.5258 29.4977 21.6855 29.3939 21.8036 29.2499C21.9217 29.106 21.9924 28.9291 22.006 28.7434H21.9969Z" fill="black"/>
</svg>
